<?xml version="1.0" encoding="utf-8"?>
<!-- Generator: Adobe Illustrator 26.4.1, SVG Export Plug-In . SVG Version: 6.00 Build 0)  -->
<svg version="1.1" id="Layer_1" xmlns="http://www.w3.org/2000/svg" xmlns:xlink="http://www.w3.org/1999/xlink" x="0px" y="0px"
	 viewBox="0 0 1002 240" style="enable-background:new 0 0 1002 240;" xml:space="preserve">
<style type="text/css">
	.st0{fill:#FFFFFF;}
	.st1{fill:#AD36FF;}
	.st2{fill:#388EE8;}
	.st3{fill:#6038E8;}
	.st4{fill:#151FD3;}
	.st5{fill:#3DCBFF;}
	.st6{fill:#292BFF;}
	.st7{fill:#0D71E8;}
</style>
<g>
	<g>
		<path class="st0" d="M322.5,173.4c-37.9,0-65.2-29-65.2-75c0-45.9,27.3-75,65.2-75c38.5,0,60.2,25.8,62.3,60.2l24.9-1.2
			c-3.6-48-33.8-80.9-87.2-80.9c-51.6,0-91.6,39.4-91.6,96.9c0,57.5,40,96.9,91.6,96.9c53.4,0,83.6-32.9,87.2-80.9l-24.9-1.2
			C382.7,147.6,361,173.4,322.5,173.4z"/>
		<path class="st0" d="M525.8,62.3l-39.7,99.6h-1.2l-41.2-99.6h-25.8l54.6,129.2l-19.8,47h24l73.4-176.2
			C550.1,62.3,525.8,62.3,525.8,62.3z"/>
		<path class="st0" d="M628.4,58.7c-19.3,0-36.8,11-43,26.7V62.3h-24.6v129.5h24.6v-74.4c0-23.7,15.4-39.1,35-39.1
			c20.5,0,30.8,13.6,30.8,35.3v78.3h24.6v-80.3C675.8,81.2,662.2,58.7,628.4,58.7z"/>
		<path class="st0" d="M755,175.8c-24.3,0-40.9-18.7-40.9-48.6c0-29.9,16.6-48.6,40.9-48.6c24,0,37.6,15.4,39.7,38.2l21.6-1.5
			c-2.7-31.1-23.1-56.6-61.1-56.6c-39.1,0-66.4,27.3-66.4,68.5c0,41.2,27.3,68.2,66.4,68.2c37.9,0,58.4-25.2,61.1-56.6l-21.6-2.1
			C792.6,159.5,779,175.8,755,175.8z"/>
		<path class="st0" d="M831.4,5.1v186.7H856V5.1H831.4z"/>
		<path class="st0" d="M976.7,62.3L937,161.9h-1.2l-41.2-99.6h-25.8l54.5,129.2l-19.8,47h24L1001,62.3
			C1001,62.3,976.7,62.3,976.7,62.3z"/>
	</g>
	<g>
		<path class="st1" d="M59.2,118.7c-3.4,1.9-7.3,3-11.5,3H1v46.7c0,12.9,10.5,23.4,23.4,23.4h70.1C94.4,162.2,80.7,135.8,59.2,118.7
			z"/>
		<path class="st2" d="M141.1,75h46.7V28.3c0-12.9-10.5-23.4-23.4-23.4H71.1v85.1c12.2,13.8,28.3,24,46.7,28.7V98.4
			C117.8,85.5,128.2,75,141.1,75z"/>
		<path class="st3" d="M187.8,168.4v-59.2c-13.7,7.9-29.7,12.5-46.7,12.5c-8.1,0-15.9-1-23.4-2.9v73h46.7
			C177.4,191.8,187.8,181.3,187.8,168.4z"/>
		<path class="st4" d="M141.1,75c-12.9,0-23.4,10.5-23.4,23.4v20.4c7.5,1.9,15.3,2.9,23.4,2.9c17,0,33-4.6,46.7-12.5V75H141.1z"/>
		<path class="st5" d="M50.6,5H24.4C11.5,5,1,15.4,1,28.3v70.1h0c22,0,42.2,7.6,58.2,20.3c7.1-4,11.9-11.6,11.9-20.3v-8.3
			C56.5,73.6,47.7,52,47.7,28.3C47.7,20.3,48.7,12.4,50.6,5z"/>
		<path class="st6" d="M1,98.4v23.4h46.7c4.2,0,8.1-1.1,11.5-3C43.2,106,23,98.4,1,98.4L1,98.4z"/>
		<path class="st7" d="M50.6,5c-1.9,7.5-2.9,15.3-2.9,23.4c0,23.7,8.8,45.3,23.4,61.8V5H50.6z"/>
	</g>
</g>
</svg>
