<?xml version="1.0" encoding="utf-8"?>
<!-- Generator: Adobe Illustrator 26.3.1, SVG Export Plug-In . SVG Version: 6.00 Build 0)  -->
<svg version="1.1" id="Layer_1" xmlns="http://www.w3.org/2000/svg" xmlns:xlink="http://www.w3.org/1999/xlink" x="0px" y="0px"
	 viewBox="0 0 1002 240" style="enable-background:new 0 0 1002 240;" xml:space="preserve">
<style type="text/css">
	.st0{fill:#AD36FF;}
	.st1{fill:#388EE8;}
	.st2{fill:#6038E8;}
	.st3{fill:#151FD3;}
	.st4{fill:#3DCBFF;}
	.st5{fill:#292BFF;}
	.st6{fill:#0D71E8;}
</style>
<g>
	<g>
		<path d="M322.4857788,173.4187164c-37.9373474,0-65.2132874-29.0446472-65.2132874-74.9905167
			c0-45.9457932,27.2759399-75.0029221,65.2132874-75.0029221c38.5479431,0,60.1821289,25.7938957,62.2619629,60.1817245
			l24.8968811-1.1832275c-3.5618896-48.0257988-33.7897949-80.931427-87.158844-80.931427
			c-51.5756226,0-91.5928192,39.4194717-91.5928192,96.9358521c0,57.5039749,40.0171967,96.9359207,91.5928192,96.9359207
			c53.3690491,0,83.5969543-32.9056244,87.158844-80.931427l-24.8968811-1.1832275
			C382.6679077,147.6372223,361.0337219,173.4187164,322.4857788,173.4187164z"/>
		<path d="M525.8357544,62.2594109l-39.7186279,99.6011963h-1.1956177l-41.2006531-99.6011963h-25.7938843l54.5524902,129.2437439
			l-19.7531738,47.0044861h23.9998474l73.4214478-176.24823H525.8357544z"/>
		<path d="M628.3885498,58.6973495c-19.2672729,0-36.7538452,10.972702-42.9812622,26.6906815V62.2594109H560.80896V191.802063
			h24.5983276v-74.4051132c0-23.714035,15.4188843-39.1331177,34.9854126-39.1331177
			c20.4506836,0,30.8256836,13.6380463,30.8256836,35.2845383v78.2536926h24.6110229v-80.3336258
			C675.8294067,81.2280884,662.1911621,58.6973495,628.3885498,58.6973495z"/>
		<path d="M754.9674072,175.7975616c-24.3118286,0-40.9141846-18.6822357-40.9141846-48.6236115
			c0-29.928978,16.602356-48.6112137,40.9141846-48.6112137c24.0126343,0,37.6381226,15.419075,39.7180176,38.2363281
			l21.6341553-1.482132c-2.6654663-31.1245956-23.1162109-56.6195831-61.0535889-56.6195831
			c-39.1329346,0-66.4088745,27.2760239-66.4088745,68.4766006c0,41.2130585,27.2759399,68.1901703,66.4088745,68.1901703
			c37.9373779,0,58.3881226-25.2085571,61.0535889-56.6196594l-21.6341553-2.0799408
			C792.6055298,159.4942322,778.9800415,175.7975616,754.9674072,175.7975616z"/>
		<path d="M831.4399414,5.0544114V191.802063h24.5982666V5.0544114H831.4399414z"/>
		<path d="M976.6876221,62.2594109l-39.7180176,99.6011963h-1.1834106l-41.2128296-99.6011963H868.791626l54.5397339,129.2437439
			l-19.7531738,47.0044861h24.0004272l73.4214478-176.24823H976.6876221z"/>
	</g>
	<g>
		<path class="st0" d="M59.1825943,118.7263336c-3.3900337,1.9175949-7.3041344,3.017334-11.4770775,3.017334H0.9999235v46.7055969
			c0,12.8973999,10.4556217,23.3527985,23.3527966,23.3527985h70.0583878
			C94.4111099,162.2129364,80.6500626,135.8412628,59.1825943,118.7263336z"/>
		<path class="st1" d="M141.1166992,75.0380783h46.7055969V28.3324814c0-12.8974018-10.4553986-23.3527946-23.3527985-23.3527946
			H71.0583115V90.110321c12.1699066,13.7903519,28.342865,23.9641571,46.7055969,28.6904144V98.3908691
			C117.7639084,85.4934692,128.2195282,75.0380783,141.1166992,75.0380783z"/>
		<path class="st2" d="M187.8222961,168.4492645v-59.2053833c-13.7398376,7.9483871-29.6906586,12.4997864-46.7055969,12.4997864
			c-8.0635529,0-15.8885651-1.0217972-23.3527908-2.9429321v73.0013275h46.7055893
			C177.3668976,191.802063,187.8222961,181.3466644,187.8222961,168.4492645z"/>
		<path class="st3" d="M141.1166992,75.0380783c-12.897171,0-23.3527908,10.4553909-23.3527908,23.3527908v20.4098663
			c7.4642258,1.9211349,15.289238,2.9429321,23.3527908,2.9429321c17.0149384,0,32.9657593-4.5513992,46.7055969-12.4997864
			V75.0380783H141.1166992z"/>
		<path class="st4" d="M50.6485634,4.9796858H24.3527203c-12.8971748,0-23.3527966,10.4553938-23.3527966,23.3527946v70.0583878
			h0.000228c22.000433,0,42.2208977,7.6099548,58.1824417,20.3354645
			c7.0881653-4.00914,11.8757172-11.6109467,11.8757172-20.3354645V90.110321
			C56.5273552,73.6441498,47.7055168,52.0200615,47.7055168,28.3324814
			C47.7055168,20.268755,48.7274284,12.4436865,50.6485634,4.9796858z"/>
		<path class="st5" d="M0.9999235,98.3908691v23.3527985h46.7055931c4.1729431,0,8.0870438-1.0997391,11.4770775-3.017334
			C43.2210503,106.000824,23.0005836,98.3908691,1.0001515,98.3908691H0.9999235z"/>
		<path class="st6" d="M50.6485634,4.9796858c-1.9211349,7.4640007-2.9430466,15.2890692-2.9430466,23.3527946
			c0,23.6875801,8.8218384,45.3116684,23.3527946,61.7778397V4.9796858H50.6485634z"/>
	</g>
</g>
</svg>
